<svg preserveAspectRatio="xMidYMid meet" data-bbox="20 20 160 160" xmlns="http://www.w3.org/2000/svg" viewBox="20 20 160 160" height="100%" width="100%" data-type="color" role="img"><defs><style>#BACK_TO_TOP_BUTTON svg [data-color="1"] {fill: #FFFFFF;}
#BACK_TO_TOP_BUTTON svg [data-color="2"] {fill: #2F2E2E;}
#BACK_TO_TOP_BUTTON svg [data-color="3"] {fill: #B0AAA9;}</style></defs>
    <g fill-rule="evenodd">
        <path fill-rule="nonzero" fill="#FFFFFF" d="M180 100c0 44.183-35.817 80-80 80s-80-35.817-80-80 35.817-80 80-80 80 35.817 80 80z" data-color="1"></path>
        <path fill="#566FB8" d="M66.066 116L62 111.64 100.151 74 138 111.668 133.953 116l-33.825-32.3L66.066 116z" data-color="2"></path>
        <path fill-rule="nonzero" fill="#6D8FF1" d="M100 24c-41.974 0-76 34.026-76 76s34.026 76 76 76 76-34.026 76-76-34.026-76-76-76zm0-4c44.183 0 80 35.817 80 80s-35.817 80-80 80-80-35.817-80-80 35.817-80 80-80z" data-color="3"></path>
    </g>
</svg>